TITLE ""
FILE "1Q_t_0949-0958.mp3" MP3
  TRACK 01 AUDIO
    TITLE "1Q_t_0949-0958_01"
    INDEX 01 00:00:00
  TRACK 02 AUDIO
    TITLE "1Q_t_0949-0958_02"
    INDEX 01 00:01:18
  TRACK 03 AUDIO
    TITLE "1Q_t_0949-0958_03"
    INDEX 01 00:01:27
  TRACK 04 AUDIO
    TITLE "1Q_t_0949-0958_04"
    INDEX 01 00:03:44
  TRACK 05 AUDIO
    TITLE "1Q_t_0949-0958_05"
    INDEX 01 00:03:52
  TRACK 06 AUDIO
    TITLE "1Q_t_0949-0958_06"
    INDEX 01 00:08:04
  TRACK 07 AUDIO
    TITLE "1Q_t_0949-0958_07"
    INDEX 01 00:08:51
  TRACK 08 AUDIO
    TITLE "1Q_t_0949-0958_08"
    INDEX 01 00:09:62
  TRACK 09 AUDIO
    TITLE "1Q_t_0949-0958_09"
    INDEX 01 00:09:68
  TRACK 10 AUDIO
    TITLE "1Q_t_0949-0958_10"
    INDEX 01 00:11:32
  TRACK 11 AUDIO
    TITLE "1Q_t_0949-0958_11"
    INDEX 01 00:11:39
  TRACK 12 AUDIO
    TITLE "1Q_t_0949-0958_12"
    INDEX 01 00:15:12
  TRACK 13 AUDIO
    TITLE "1Q_t_0949-0958_13"
    INDEX 01 00:15:59
  TRACK 14 AUDIO
    TITLE "1Q_t_0949-0958_14"
    INDEX 01 00:16:60
  TRACK 15 AUDIO
    TITLE "1Q_t_0949-0958_15"
    INDEX 01 00:16:68
  TRACK 16 AUDIO
    TITLE "1Q_t_0949-0958_16"
    INDEX 01 00:19:12
  TRACK 17 AUDIO
    TITLE "1Q_t_0949-0958_17"
    INDEX 01 00:19:19
  TRACK 18 AUDIO
    TITLE "1Q_t_0949-0958_18"
    INDEX 01 00:23:52
  TRACK 19 AUDIO
    TITLE "1Q_t_0949-0958_19"
    INDEX 01 00:24:25
  TRACK 20 AUDIO
    TITLE "1Q_t_0949-0958_20"
    INDEX 01 00:25:20
  TRACK 21 AUDIO
    TITLE "1Q_t_0949-0958_21"
    INDEX 01 00:25:30
  TRACK 22 AUDIO
    TITLE "1Q_t_0949-0958_22"
    INDEX 01 00:26:35
  TRACK 23 AUDIO
    TITLE "1Q_t_0949-0958_23"
    INDEX 01 00:26:43
  TRACK 24 AUDIO
    TITLE "1Q_t_0949-0958_24"
    INDEX 01 00:32:32
  TRACK 25 AUDIO
    TITLE "1Q_t_0949-0958_25"
    INDEX 01 00:33:02
  TRACK 26 AUDIO
    TITLE "1Q_t_0949-0958_26"
    INDEX 01 00:34:17
  TRACK 27 AUDIO
    TITLE "1Q_t_0949-0958_27"
    INDEX 01 00:34:23
  TRACK 28 AUDIO
    TITLE "1Q_t_0949-0958_28"
    INDEX 01 00:36:28
  TRACK 29 AUDIO
    TITLE "1Q_t_0949-0958_29"
    INDEX 01 00:36:34
  TRACK 30 AUDIO
    TITLE "1Q_t_0949-0958_30"
    INDEX 01 00:42:28
  TRACK 31 AUDIO
    TITLE "1Q_t_0949-0958_31"
    INDEX 01 00:42:73
  TRACK 32 AUDIO
    TITLE "1Q_t_0949-0958_32"
    INDEX 01 00:44:15
  TRACK 33 AUDIO
    TITLE "1Q_t_0949-0958_33"
    INDEX 01 00:44:23
  TRACK 34 AUDIO
    TITLE "1Q_t_0949-0958_34"
    INDEX 01 00:45:50
  TRACK 35 AUDIO
    TITLE "1Q_t_0949-0958_35"
    INDEX 01 00:45:58
  TRACK 36 AUDIO
    TITLE "1Q_t_0949-0958_36"
    INDEX 01 00:50:28
  TRACK 37 AUDIO
    TITLE "1Q_t_0949-0958_37"
    INDEX 01 00:51:00
  TRACK 38 AUDIO
    TITLE "1Q_t_0949-0958_38"
    INDEX 01 00:52:15
  TRACK 39 AUDIO
    TITLE "1Q_t_0949-0958_39"
    INDEX 01 00:52:23
  TRACK 40 AUDIO
    TITLE "1Q_t_0949-0958_40"
    INDEX 01 00:53:26
  TRACK 41 AUDIO
    TITLE "1Q_t_0949-0958_41"
    INDEX 01 00:53:34
  TRACK 42 AUDIO
    TITLE "1Q_t_0949-0958_42"
    INDEX 01 00:57:71
  TRACK 43 AUDIO
    TITLE "1Q_t_0949-0958_43"
    INDEX 01 00:58:43
  TRACK 44 AUDIO
    TITLE "1Q_t_0949-0958_44"
    INDEX 01 00:59:48
  TRACK 45 AUDIO
    TITLE "1Q_t_0949-0958_45"
    INDEX 01 00:59:54
  TRACK 46 AUDIO
    TITLE "1Q_t_0949-0958_46"
    INDEX 01 01:00:60
  TRACK 47 AUDIO
    TITLE "1Q_t_0949-0958_47"
    INDEX 01 01:00:65
  TRACK 48 AUDIO
    TITLE "1Q_t_0949-0958_48"
    INDEX 01 01:04:63
  TRACK 49 AUDIO
    TITLE "1Q_t_0949-0958_49"
    INDEX 01 01:05:35
  TRACK 50 AUDIO
    TITLE "1Q_t_0949-0958_50"
    INDEX 01 01:06:39
  TRACK 51 AUDIO
    TITLE "1Q_t_0949-0958_51"
    INDEX 01 01:06:46
  TRACK 52 AUDIO
    TITLE "1Q_t_0949-0958_52"
    INDEX 01 01:10:64
  TRACK 53 AUDIO
    TITLE "1Q_t_0949-0958_53"
    INDEX 01 01:10:72
  TRACK 54 AUDIO
    TITLE "1Q_t_0949-0958_54"
    INDEX 01 01:16:15
  TRACK 55 AUDIO
    TITLE "1Q_t_0949-0958_55"
    INDEX 01 01:16:60
  TRACK 56 AUDIO
    TITLE "1Q_t_0949-0958_56"
    INDEX 01 01:18:16
  TRACK 57 AUDIO
    TITLE "1Q_t_0949-0958_57"
    INDEX 01 01:18:26
  TRACK 58 AUDIO
    TITLE "1Q_t_0949-0958_58"
    INDEX 01 01:19:39
  TRACK 59 AUDIO
    TITLE "1Q_t_0949-0958_59"
    INDEX 01 01:19:47
  TRACK 60 AUDIO
    TITLE "1Q_t_0949-0958_60"
    INDEX 01 01:24:40
